<svg width="1920" height="56" viewBox="0 0 1920 56" fill="none" xmlns="http://www.w3.org/2000/svg">
<g clip-path="url(#clip0_8_314)" filter="url(#filter0_b_8_314)">
<rect width="1920" height="56" fill="black" fill-opacity="0.02"/>
<path d="M48 21.9123C48.1511 22.5045 48.459 23.0451 48.8912 23.4773C49.3233 23.9095 49.8639 24.2173 50.4561 24.3684H54.3158L54.4912 24.4035V34.0877H56.8772V24.4386L57.1228 24.3333H60.9825C61.573 24.1788 62.1118 23.8698 62.5435 23.4382C62.9751 23.0065 63.2841 22.4678 63.4386 21.8772H48V21.9123ZM131.719 21.9123H129.333V34.1228H140.281C140.799 33.9267 141.262 33.6068 141.629 33.191C141.996 32.7752 142.256 32.276 142.386 31.7368H131.754V21.8772L131.719 21.9123ZM113.368 24.2982C114.632 23.9474 115.684 22.9649 115.965 21.8772L102.596 21.9123V29.1404H113.509V31.6667H104.947C104.294 31.8367 103.684 32.1436 103.157 32.567C102.631 32.9904 102.201 33.5207 101.895 34.1228H115.895V26.7544H104.947V24.2982H113.368ZM154.14 34.1228H156.491V29.2105H165.123V34.1228H167.474V26.7544H154.14V34.1228ZM77.9298 24.3333H87.0526C87.653 24.1913 88.2028 23.8872 88.6421 23.454C89.0814 23.0209 89.3933 22.4755 89.5439 21.8772H75.4737C75.6213 22.4711 75.928 23.0135 76.3607 23.4463C76.7935 23.879 77.3359 24.1857 77.9298 24.3333ZM77.9298 29.1754H87.0526C87.653 29.0334 88.2028 28.7293 88.6421 28.2962C89.0814 27.863 89.3933 27.3176 89.5439 26.7193H75.4737C75.6213 27.3132 75.928 27.8556 76.3607 28.2884C76.7935 28.7211 77.3359 29.0278 77.9298 29.1754ZM77.9298 34.1228H87.0526C87.653 33.9808 88.2028 33.6766 88.6421 33.2435C89.0814 32.8104 89.3933 32.2649 89.5439 31.6667H75.4737C75.6213 32.2606 75.928 32.803 76.3607 33.2357C76.7935 33.6685 77.3359 33.9752 77.9298 34.1228ZM156.246 24.3333H165.368C165.962 24.1857 166.505 23.879 166.938 23.4463C167.37 23.0135 167.677 22.4711 167.825 21.8772L153.789 21.8772C153.937 22.4711 154.244 23.0135 154.677 23.4463C155.109 23.879 155.652 24.1857 156.246 24.3333Z" fill="white"/>
<path d="M774.37 22.088H775.924L778.836 30.152H778.864L781.888 22.088H783.358L779.452 32H778.192L774.37 22.088ZM784.411 29.144C784.411 29.4333 784.472 29.6993 784.593 29.942C784.724 30.1753 784.892 30.376 785.097 30.544C785.302 30.712 785.54 30.8427 785.811 30.936C786.082 31.0293 786.362 31.076 786.651 31.076C787.043 31.076 787.384 30.9873 787.673 30.81C787.962 30.6233 788.228 30.3807 788.471 30.082L789.423 30.81C788.723 31.7153 787.743 32.168 786.483 32.168C785.96 32.168 785.484 32.0793 785.055 31.902C784.635 31.7247 784.276 31.482 783.977 31.174C783.688 30.8567 783.464 30.488 783.305 30.068C783.146 29.6387 783.067 29.1767 783.067 28.682C783.067 28.1873 783.151 27.73 783.319 27.31C783.496 26.8807 783.734 26.512 784.033 26.204C784.341 25.8867 784.705 25.6393 785.125 25.462C785.545 25.2847 786.002 25.196 786.497 25.196C787.085 25.196 787.58 25.2987 787.981 25.504C788.392 25.7093 788.728 25.98 788.989 26.316C789.25 26.6427 789.437 27.016 789.549 27.436C789.67 27.8467 789.731 28.2667 789.731 28.696V29.144H784.411ZM788.387 28.136C788.378 27.856 788.331 27.5993 788.247 27.366C788.172 27.1327 788.056 26.932 787.897 26.764C787.738 26.5867 787.538 26.4513 787.295 26.358C787.062 26.2553 786.786 26.204 786.469 26.204C786.161 26.204 785.876 26.2647 785.615 26.386C785.363 26.498 785.148 26.6473 784.971 26.834C784.794 27.0207 784.654 27.2307 784.551 27.464C784.458 27.688 784.411 27.912 784.411 28.136H788.387ZM791.238 21.416H792.498V26.386H792.526C792.685 26.0313 792.96 25.7467 793.352 25.532C793.744 25.308 794.197 25.196 794.71 25.196C795.027 25.196 795.331 25.2473 795.62 25.35C795.919 25.4433 796.175 25.5927 796.39 25.798C796.614 26.0033 796.791 26.2693 796.922 26.596C797.053 26.9133 797.118 27.2913 797.118 27.73V32H795.858V28.08C795.858 27.772 795.816 27.5107 795.732 27.296C795.648 27.072 795.536 26.8947 795.396 26.764C795.256 26.624 795.093 26.526 794.906 26.47C794.729 26.4047 794.542 26.372 794.346 26.372C794.085 26.372 793.842 26.414 793.618 26.498C793.394 26.582 793.198 26.7173 793.03 26.904C792.862 27.0813 792.731 27.31 792.638 27.59C792.545 27.87 792.498 28.2013 792.498 28.584V32H791.238V21.416ZM799.115 25.364H800.375V32H799.115V25.364ZM798.821 22.984C798.821 22.732 798.91 22.5173 799.087 22.34C799.274 22.1533 799.493 22.06 799.745 22.06C799.997 22.06 800.212 22.1533 800.389 22.34C800.576 22.5173 800.669 22.732 800.669 22.984C800.669 23.236 800.576 23.4553 800.389 23.642C800.212 23.8193 799.997 23.908 799.745 23.908C799.493 23.908 799.274 23.8193 799.087 23.642C798.91 23.4553 798.821 23.236 798.821 22.984ZM807.127 27.128C806.893 26.8853 806.646 26.7033 806.385 26.582C806.133 26.4513 805.829 26.386 805.475 26.386C805.129 26.386 804.826 26.4513 804.565 26.582C804.313 26.7033 804.098 26.876 803.921 27.1C803.753 27.3147 803.622 27.5667 803.529 27.856C803.445 28.136 803.403 28.43 803.403 28.738C803.403 29.046 803.454 29.34 803.557 29.62C803.659 29.8907 803.804 30.1287 803.991 30.334C804.177 30.5393 804.401 30.7027 804.663 30.824C804.924 30.936 805.218 30.992 805.545 30.992C805.899 30.992 806.203 30.9313 806.455 30.81C806.707 30.6793 806.94 30.4927 807.155 30.25L808.051 31.146C807.724 31.51 807.341 31.7713 806.903 31.93C806.473 32.0887 806.016 32.168 805.531 32.168C805.017 32.168 804.546 32.084 804.117 31.916C803.697 31.748 803.333 31.5147 803.025 31.216C802.717 30.908 802.479 30.544 802.311 30.124C802.143 29.6947 802.059 29.2233 802.059 28.71C802.059 28.1967 802.143 27.7253 802.311 27.296C802.479 26.8667 802.712 26.498 803.011 26.19C803.319 25.882 803.683 25.644 804.103 25.476C804.532 25.2987 805.008 25.21 805.531 25.21C806.016 25.21 806.478 25.2987 806.917 25.476C807.365 25.644 807.752 25.9053 808.079 26.26L807.127 27.128ZM809.233 21.416H810.493V32H809.233V21.416ZM813.45 29.144C813.45 29.4333 813.511 29.6993 813.632 29.942C813.763 30.1753 813.931 30.376 814.136 30.544C814.341 30.712 814.579 30.8427 814.85 30.936C815.121 31.0293 815.401 31.076 815.69 31.076C816.082 31.076 816.423 30.9873 816.712 30.81C817.001 30.6233 817.267 30.3807 817.51 30.082L818.462 30.81C817.762 31.7153 816.782 32.168 815.522 32.168C814.999 32.168 814.523 32.0793 814.094 31.902C813.674 31.7247 813.315 31.482 813.016 31.174C812.727 30.8567 812.503 30.488 812.344 30.068C812.185 29.6387 812.106 29.1767 812.106 28.682C812.106 28.1873 812.19 27.73 812.358 27.31C812.535 26.8807 812.773 26.512 813.072 26.204C813.38 25.8867 813.744 25.6393 814.164 25.462C814.584 25.2847 815.041 25.196 815.536 25.196C816.124 25.196 816.619 25.2987 817.02 25.504C817.431 25.7093 817.767 25.98 818.028 26.316C818.289 26.6427 818.476 27.016 818.588 27.436C818.709 27.8467 818.77 28.2667 818.77 28.696V29.144H813.45ZM817.426 28.136C817.417 27.856 817.37 27.5993 817.286 27.366C817.211 27.1327 817.095 26.932 816.936 26.764C816.777 26.5867 816.577 26.4513 816.334 26.358C816.101 26.2553 815.825 26.204 815.508 26.204C815.2 26.204 814.915 26.2647 814.654 26.386C814.402 26.498 814.187 26.6473 814.01 26.834C813.833 27.0207 813.693 27.2307 813.59 27.464C813.497 27.688 813.45 27.912 813.45 28.136H817.426ZM823.805 27.03C823.656 26.8433 823.469 26.6893 823.245 26.568C823.031 26.4373 822.765 26.372 822.447 26.372C822.149 26.372 821.887 26.4373 821.663 26.568C821.449 26.6893 821.341 26.8713 821.341 27.114C821.341 27.31 821.402 27.4687 821.523 27.59C821.654 27.7113 821.803 27.8093 821.971 27.884C822.149 27.9587 822.335 28.0147 822.531 28.052C822.727 28.0893 822.895 28.122 823.035 28.15C823.306 28.2153 823.558 28.2947 823.791 28.388C824.034 28.4813 824.239 28.6027 824.407 28.752C824.585 28.9013 824.72 29.0833 824.813 29.298C824.916 29.5127 824.967 29.774 824.967 30.082C824.967 30.4553 824.888 30.7773 824.729 31.048C824.571 31.3093 824.365 31.524 824.113 31.692C823.861 31.86 823.572 31.9813 823.245 32.056C822.928 32.1307 822.606 32.168 822.279 32.168C821.729 32.168 821.243 32.084 820.823 31.916C820.413 31.748 820.044 31.44 819.717 30.992L820.669 30.208C820.875 30.4133 821.103 30.5953 821.355 30.754C821.607 30.9127 821.915 30.992 822.279 30.992C822.438 30.992 822.597 30.978 822.755 30.95C822.923 30.9127 823.068 30.8613 823.189 30.796C823.32 30.7213 823.423 30.6327 823.497 30.53C823.581 30.418 823.623 30.292 823.623 30.152C823.623 29.9653 823.563 29.8113 823.441 29.69C823.329 29.5687 823.189 29.4753 823.021 29.41C822.863 29.3353 822.69 29.2793 822.503 29.242C822.326 29.1953 822.167 29.158 822.027 29.13C821.757 29.0647 821.5 28.99 821.257 28.906C821.015 28.822 820.8 28.71 820.613 28.57C820.427 28.43 820.277 28.2527 820.165 28.038C820.053 27.8233 819.997 27.5573 819.997 27.24C819.997 26.8947 820.067 26.596 820.207 26.344C820.357 26.0827 820.548 25.868 820.781 25.7C821.024 25.532 821.295 25.406 821.593 25.322C821.901 25.238 822.209 25.196 822.517 25.196C822.965 25.196 823.395 25.28 823.805 25.448C824.216 25.616 824.543 25.896 824.785 26.288L823.805 27.03Z" fill="white"/>
<path d="M859.468 22.088H865.866V23.348H860.812V26.302H865.516V27.562H860.812V30.74H866.118V32H859.468V22.088ZM867.705 25.364H868.965V26.386H868.993C869.152 26.0313 869.427 25.7467 869.819 25.532C870.211 25.308 870.664 25.196 871.177 25.196C871.494 25.196 871.798 25.2473 872.087 25.35C872.386 25.4433 872.642 25.5927 872.857 25.798C873.081 26.0033 873.258 26.2693 873.389 26.596C873.52 26.9133 873.585 27.2913 873.585 27.73V32H872.325V28.08C872.325 27.772 872.283 27.5107 872.199 27.296C872.115 27.072 872.003 26.8947 871.863 26.764C871.723 26.624 871.56 26.526 871.373 26.47C871.196 26.4047 871.009 26.372 870.813 26.372C870.552 26.372 870.309 26.414 870.085 26.498C869.861 26.582 869.665 26.7173 869.497 26.904C869.329 27.0813 869.198 27.31 869.105 27.59C869.012 27.87 868.965 28.2013 868.965 28.584V32H867.705V25.364ZM876.436 29.144C876.436 29.4333 876.497 29.6993 876.618 29.942C876.749 30.1753 876.917 30.376 877.122 30.544C877.328 30.712 877.566 30.8427 877.836 30.936C878.107 31.0293 878.387 31.076 878.676 31.076C879.068 31.076 879.409 30.9873 879.698 30.81C879.988 30.6233 880.254 30.3807 880.496 30.082L881.448 30.81C880.748 31.7153 879.768 32.168 878.508 32.168C877.986 32.168 877.51 32.0793 877.08 31.902C876.66 31.7247 876.301 31.482 876.002 31.174C875.713 30.8567 875.489 30.488 875.33 30.068C875.172 29.6387 875.092 29.1767 875.092 28.682C875.092 28.1873 875.176 27.73 875.344 27.31C875.522 26.8807 875.76 26.512 876.058 26.204C876.366 25.8867 876.73 25.6393 877.15 25.462C877.57 25.2847 878.028 25.196 878.522 25.196C879.11 25.196 879.605 25.2987 880.006 25.504C880.417 25.7093 880.753 25.98 881.014 26.316C881.276 26.6427 881.462 27.016 881.574 27.436C881.696 27.8467 881.756 28.2667 881.756 28.696V29.144H876.436ZM880.412 28.136C880.403 27.856 880.356 27.5993 880.272 27.366C880.198 27.1327 880.081 26.932 879.922 26.764C879.764 26.5867 879.563 26.4513 879.32 26.358C879.087 26.2553 878.812 26.204 878.494 26.204C878.186 26.204 877.902 26.2647 877.64 26.386C877.388 26.498 877.174 26.6473 876.996 26.834C876.819 27.0207 876.679 27.2307 876.576 27.464C876.483 27.688 876.436 27.912 876.436 28.136H880.412ZM883.264 25.364H884.524V26.386H884.552C884.636 26.2087 884.748 26.05 884.888 25.91C885.028 25.7607 885.182 25.6347 885.35 25.532C885.527 25.4293 885.718 25.35 885.924 25.294C886.129 25.2287 886.334 25.196 886.54 25.196C886.745 25.196 886.932 25.224 887.1 25.28L887.044 26.638C886.941 26.61 886.838 26.5867 886.736 26.568C886.633 26.5493 886.53 26.54 886.428 26.54C885.812 26.54 885.34 26.7127 885.014 27.058C884.687 27.4033 884.524 27.94 884.524 28.668V32H883.264V25.364ZM894.849 31.944C894.849 32.448 894.76 32.9053 894.583 33.316C894.415 33.736 894.172 34.0953 893.855 34.394C893.538 34.702 893.155 34.94 892.707 35.108C892.259 35.276 891.764 35.36 891.223 35.36C890.588 35.36 890.005 35.2713 889.473 35.094C888.95 34.9167 888.451 34.6087 887.975 34.17L888.829 33.106C889.156 33.4607 889.51 33.7267 889.893 33.904C890.276 34.0907 890.71 34.184 891.195 34.184C891.662 34.184 892.049 34.114 892.357 33.974C892.665 33.8433 892.908 33.6707 893.085 33.456C893.272 33.2413 893.402 32.994 893.477 32.714C893.552 32.4433 893.589 32.168 893.589 31.888V30.908H893.547C893.304 31.3093 892.973 31.608 892.553 31.804C892.142 31.9907 891.708 32.084 891.251 32.084C890.766 32.084 890.313 32 889.893 31.832C889.482 31.6547 889.128 31.4167 888.829 31.118C888.53 30.81 888.297 30.4507 888.129 30.04C887.961 29.62 887.877 29.1673 887.877 28.682C887.877 28.1967 887.956 27.744 888.115 27.324C888.274 26.8947 888.498 26.5213 888.787 26.204C889.086 25.8867 889.44 25.6393 889.851 25.462C890.271 25.2847 890.738 25.196 891.251 25.196C891.699 25.196 892.133 25.294 892.553 25.49C892.982 25.686 893.318 25.9613 893.561 26.316H893.589V25.364H894.849V31.944ZM891.405 26.372C891.069 26.372 890.766 26.4327 890.495 26.554C890.224 26.666 889.996 26.8247 889.809 27.03C889.622 27.226 889.478 27.4687 889.375 27.758C889.272 28.038 889.221 28.346 889.221 28.682C889.221 29.354 889.417 29.8953 889.809 30.306C890.201 30.7073 890.733 30.908 891.405 30.908C892.077 30.908 892.609 30.7073 893.001 30.306C893.393 29.8953 893.589 29.354 893.589 28.682C893.589 28.346 893.538 28.038 893.435 27.758C893.332 27.4687 893.188 27.226 893.001 27.03C892.814 26.8247 892.586 26.666 892.315 26.554C892.044 26.4327 891.741 26.372 891.405 26.372ZM895.96 25.364H897.416L899.39 30.544H899.418L901.294 25.364H902.652L899.502 33.428C899.39 33.7173 899.273 33.9787 899.152 34.212C899.03 34.4547 898.886 34.66 898.718 34.828C898.55 34.996 898.344 35.1267 898.102 35.22C897.868 35.3133 897.579 35.36 897.234 35.36C897.047 35.36 896.856 35.346 896.66 35.318C896.473 35.2993 896.291 35.2527 896.114 35.178L896.268 34.03C896.52 34.1327 896.772 34.184 897.024 34.184C897.22 34.184 897.383 34.156 897.514 34.1C897.654 34.0533 897.77 33.9787 897.864 33.876C897.966 33.7827 898.05 33.6707 898.116 33.54C898.181 33.4093 898.246 33.26 898.312 33.092L898.718 32.042L895.96 25.364Z" fill="white"/>
<path d="M943.63 24.23C943.35 23.866 942.995 23.586 942.566 23.39C942.137 23.194 941.693 23.096 941.236 23.096C940.676 23.096 940.167 23.2033 939.71 23.418C939.262 23.6233 938.875 23.908 938.548 24.272C938.231 24.636 937.983 25.0653 937.806 25.56C937.629 26.0453 937.54 26.568 937.54 27.128C937.54 27.6507 937.624 28.1453 937.792 28.612C937.96 29.0787 938.203 29.4893 938.52 29.844C938.837 30.1987 939.225 30.4787 939.682 30.684C940.139 30.8893 940.657 30.992 941.236 30.992C941.805 30.992 942.305 30.8753 942.734 30.642C943.163 30.4087 943.527 30.082 943.826 29.662L944.96 30.516C944.885 30.6187 944.755 30.768 944.568 30.964C944.381 31.1507 944.134 31.342 943.826 31.538C943.518 31.7247 943.145 31.888 942.706 32.028C942.277 32.1773 941.777 32.252 941.208 32.252C940.424 32.252 939.715 32.1027 939.08 31.804C938.455 31.5053 937.918 31.1133 937.47 30.628C937.031 30.1427 936.695 29.5967 936.462 28.99C936.229 28.374 936.112 27.7533 936.112 27.128C936.112 26.3627 936.238 25.658 936.49 25.014C936.742 24.3607 937.092 23.8007 937.54 23.334C937.997 22.858 938.543 22.4893 939.178 22.228C939.813 21.9667 940.513 21.836 941.278 21.836C941.931 21.836 942.571 21.962 943.196 22.214C943.831 22.466 944.349 22.8533 944.75 23.376L943.63 24.23ZM946.264 21.416H947.524V26.386H947.552C947.71 26.0313 947.986 25.7467 948.378 25.532C948.77 25.308 949.222 25.196 949.736 25.196C950.053 25.196 950.356 25.2473 950.646 25.35C950.944 25.4433 951.201 25.5927 951.416 25.798C951.64 26.0033 951.817 26.2693 951.948 26.596C952.078 26.9133 952.144 27.2913 952.144 27.73V32H950.884V28.08C950.884 27.772 950.842 27.5107 950.758 27.296C950.674 27.072 950.562 26.8947 950.422 26.764C950.282 26.624 950.118 26.526 949.932 26.47C949.754 26.4047 949.568 26.372 949.372 26.372C949.11 26.372 948.868 26.414 948.644 26.498C948.42 26.582 948.224 26.7173 948.056 26.904C947.888 27.0813 947.757 27.31 947.664 27.59C947.57 27.87 947.524 28.2013 947.524 28.584V32H946.264V21.416ZM954.071 26.176C954.425 25.8493 954.836 25.6067 955.303 25.448C955.769 25.28 956.236 25.196 956.703 25.196C957.188 25.196 957.603 25.2567 957.949 25.378C958.303 25.4993 958.593 25.6627 958.817 25.868C959.041 26.0733 959.204 26.3113 959.307 26.582C959.419 26.8433 959.475 27.1187 959.475 27.408V30.796C959.475 31.0293 959.479 31.244 959.489 31.44C959.498 31.636 959.512 31.8227 959.531 32H958.411C958.383 31.664 958.369 31.328 958.369 30.992H958.341C958.061 31.4213 957.729 31.7247 957.347 31.902C956.964 32.0793 956.521 32.168 956.017 32.168C955.709 32.168 955.415 32.126 955.135 32.042C954.855 31.958 954.607 31.832 954.393 31.664C954.187 31.496 954.024 31.2907 953.903 31.048C953.781 30.796 953.721 30.5067 953.721 30.18C953.721 29.7507 953.814 29.3913 954.001 29.102C954.197 28.8127 954.458 28.5793 954.785 28.402C955.121 28.2153 955.508 28.0847 955.947 28.01C956.395 27.926 956.871 27.884 957.375 27.884H958.299V27.604C958.299 27.436 958.266 27.268 958.201 27.1C958.135 26.932 958.037 26.7827 957.907 26.652C957.776 26.512 957.613 26.4047 957.417 26.33C957.221 26.246 956.987 26.204 956.717 26.204C956.474 26.204 956.259 26.2273 956.073 26.274C955.895 26.3207 955.732 26.3813 955.583 26.456C955.433 26.5213 955.298 26.6007 955.177 26.694C955.055 26.7873 954.939 26.876 954.827 26.96L954.071 26.176ZM957.627 28.808C957.328 28.808 957.02 28.8267 956.703 28.864C956.395 28.892 956.11 28.9527 955.849 29.046C955.597 29.1393 955.387 29.27 955.219 29.438C955.06 29.606 954.981 29.8207 954.981 30.082C954.981 30.4647 955.107 30.74 955.359 30.908C955.62 31.076 955.97 31.16 956.409 31.16C956.754 31.16 957.048 31.104 957.291 30.992C957.533 30.8707 957.729 30.7167 957.879 30.53C958.028 30.3433 958.135 30.138 958.201 29.914C958.266 29.6807 958.299 29.452 958.299 29.228V28.808H957.627ZM961.303 25.364H962.563V26.386H962.591C962.675 26.2087 962.787 26.05 962.927 25.91C963.067 25.7607 963.221 25.6347 963.389 25.532C963.566 25.4293 963.757 25.35 963.963 25.294C964.168 25.2287 964.373 25.196 964.579 25.196C964.784 25.196 964.971 25.224 965.139 25.28L965.083 26.638C964.98 26.61 964.877 26.5867 964.775 26.568C964.672 26.5493 964.569 26.54 964.467 26.54C963.851 26.54 963.379 26.7127 963.053 27.058C962.726 27.4033 962.563 27.94 962.563 28.668V32H961.303V25.364ZM972.888 31.944C972.888 32.448 972.799 32.9053 972.622 33.316C972.454 33.736 972.211 34.0953 971.894 34.394C971.577 34.702 971.194 34.94 970.746 35.108C970.298 35.276 969.803 35.36 969.262 35.36C968.627 35.36 968.044 35.2713 967.512 35.094C966.989 34.9167 966.49 34.6087 966.014 34.17L966.868 33.106C967.195 33.4607 967.549 33.7267 967.932 33.904C968.315 34.0907 968.749 34.184 969.234 34.184C969.701 34.184 970.088 34.114 970.396 33.974C970.704 33.8433 970.947 33.6707 971.124 33.456C971.311 33.2413 971.441 32.994 971.516 32.714C971.591 32.4433 971.628 32.168 971.628 31.888V30.908H971.586C971.343 31.3093 971.012 31.608 970.592 31.804C970.181 31.9907 969.747 32.084 969.29 32.084C968.805 32.084 968.352 32 967.932 31.832C967.521 31.6547 967.167 31.4167 966.868 31.118C966.569 30.81 966.336 30.4507 966.168 30.04C966 29.62 965.916 29.1673 965.916 28.682C965.916 28.1967 965.995 27.744 966.154 27.324C966.313 26.8947 966.537 26.5213 966.826 26.204C967.125 25.8867 967.479 25.6393 967.89 25.462C968.31 25.2847 968.777 25.196 969.29 25.196C969.738 25.196 970.172 25.294 970.592 25.49C971.021 25.686 971.357 25.9613 971.6 26.316H971.628V25.364H972.888V31.944ZM969.444 26.372C969.108 26.372 968.805 26.4327 968.534 26.554C968.263 26.666 968.035 26.8247 967.848 27.03C967.661 27.226 967.517 27.4687 967.414 27.758C967.311 28.038 967.26 28.346 967.26 28.682C967.26 29.354 967.456 29.8953 967.848 30.306C968.24 30.7073 968.772 30.908 969.444 30.908C970.116 30.908 970.648 30.7073 971.04 30.306C971.432 29.8953 971.628 29.354 971.628 28.682C971.628 28.346 971.577 28.038 971.474 27.758C971.371 27.4687 971.227 27.226 971.04 27.03C970.853 26.8247 970.625 26.666 970.354 26.554C970.083 26.4327 969.78 26.372 969.444 26.372ZM974.895 25.364H976.155V32H974.895V25.364ZM974.601 22.984C974.601 22.732 974.689 22.5173 974.867 22.34C975.053 22.1533 975.273 22.06 975.525 22.06C975.777 22.06 975.991 22.1533 976.169 22.34C976.355 22.5173 976.449 22.732 976.449 22.984C976.449 23.236 976.355 23.4553 976.169 23.642C975.991 23.8193 975.777 23.908 975.525 23.908C975.273 23.908 975.053 23.8193 974.867 23.642C974.689 23.4553 974.601 23.236 974.601 22.984ZM978.16 25.364H979.42V26.386H979.448C979.607 26.0313 979.882 25.7467 980.274 25.532C980.666 25.308 981.119 25.196 981.632 25.196C981.949 25.196 982.253 25.2473 982.542 25.35C982.841 25.4433 983.097 25.5927 983.312 25.798C983.536 26.0033 983.713 26.2693 983.844 26.596C983.975 26.9133 984.04 27.2913 984.04 27.73V32H982.78V28.08C982.78 27.772 982.738 27.5107 982.654 27.296C982.57 27.072 982.458 26.8947 982.318 26.764C982.178 26.624 982.015 26.526 981.828 26.47C981.651 26.4047 981.464 26.372 981.268 26.372C981.007 26.372 980.764 26.414 980.54 26.498C980.316 26.582 980.12 26.7173 979.952 26.904C979.784 27.0813 979.653 27.31 979.56 27.59C979.467 27.87 979.42 28.2013 979.42 28.584V32H978.16V25.364ZM992.589 31.944C992.589 32.448 992.501 32.9053 992.323 33.316C992.155 33.736 991.913 34.0953 991.595 34.394C991.278 34.702 990.895 34.94 990.447 35.108C989.999 35.276 989.505 35.36 988.963 35.36C988.329 35.36 987.745 35.2713 987.213 35.094C986.691 34.9167 986.191 34.6087 985.715 34.17L986.569 33.106C986.896 33.4607 987.251 33.7267 987.633 33.904C988.016 34.0907 988.45 34.184 988.935 34.184C989.402 34.184 989.789 34.114 990.097 33.974C990.405 33.8433 990.648 33.6707 990.825 33.456C991.012 33.2413 991.143 32.994 991.217 32.714C991.292 32.4433 991.329 32.168 991.329 31.888V30.908H991.287C991.045 31.3093 990.713 31.608 990.293 31.804C989.883 31.9907 989.449 32.084 988.991 32.084C988.506 32.084 988.053 32 987.633 31.832C987.223 31.6547 986.868 31.4167 986.569 31.118C986.271 30.81 986.037 30.4507 985.869 30.04C985.701 29.62 985.617 29.1673 985.617 28.682C985.617 28.1967 985.697 27.744 985.855 27.324C986.014 26.8947 986.238 26.5213 986.527 26.204C986.826 25.8867 987.181 25.6393 987.591 25.462C988.011 25.2847 988.478 25.196 988.991 25.196C989.439 25.196 989.873 25.294 990.293 25.49C990.723 25.686 991.059 25.9613 991.301 26.316H991.329V25.364H992.589V31.944ZM989.145 26.372C988.809 26.372 988.506 26.4327 988.235 26.554C987.965 26.666 987.736 26.8247 987.549 27.03C987.363 27.226 987.218 27.4687 987.115 27.758C987.013 28.038 986.961 28.346 986.961 28.682C986.961 29.354 987.157 29.8953 987.549 30.306C987.941 30.7073 988.473 30.908 989.145 30.908C989.817 30.908 990.349 30.7073 990.741 30.306C991.133 29.8953 991.329 29.354 991.329 28.682C991.329 28.346 991.278 28.038 991.175 27.758C991.073 27.4687 990.928 27.226 990.741 27.03C990.555 26.8247 990.326 26.666 990.055 26.554C989.785 26.4327 989.481 26.372 989.145 26.372Z" fill="white"/>
<path d="M1027.06 22.088H1030.51C1031.21 22.088 1031.83 22.1673 1032.35 22.326C1032.88 22.4847 1033.34 22.6993 1033.72 22.97C1034.11 23.2313 1034.43 23.5347 1034.69 23.88C1034.95 24.2253 1035.15 24.58 1035.3 24.944C1035.45 25.308 1035.56 25.672 1035.62 26.036C1035.69 26.4 1035.72 26.736 1035.72 27.044C1035.72 27.6787 1035.61 28.2947 1035.37 28.892C1035.14 29.48 1034.79 30.0073 1034.34 30.474C1033.88 30.9313 1033.31 31.3 1032.63 31.58C1031.96 31.86 1031.18 32 1030.29 32H1027.06V22.088ZM1028.4 30.74H1030.09C1030.66 30.74 1031.2 30.6653 1031.7 30.516C1032.22 30.3573 1032.67 30.124 1033.05 29.816C1033.43 29.508 1033.73 29.1253 1033.96 28.668C1034.18 28.2013 1034.29 27.66 1034.29 27.044C1034.29 26.7267 1034.24 26.358 1034.14 25.938C1034.04 25.5087 1033.84 25.1027 1033.55 24.72C1033.27 24.3373 1032.88 24.0153 1032.38 23.754C1031.87 23.4833 1031.22 23.348 1030.42 23.348H1028.4V30.74ZM1037.43 25.364H1038.69V32H1037.43V25.364ZM1037.14 22.984C1037.14 22.732 1037.23 22.5173 1037.4 22.34C1037.59 22.1533 1037.81 22.06 1038.06 22.06C1038.31 22.06 1038.53 22.1533 1038.71 22.34C1038.89 22.5173 1038.99 22.732 1038.99 22.984C1038.99 23.236 1038.89 23.4553 1038.71 23.642C1038.53 23.8193 1038.31 23.908 1038.06 23.908C1037.81 23.908 1037.59 23.8193 1037.4 23.642C1037.23 23.4553 1037.14 23.236 1037.14 22.984ZM1044.23 27.03C1044.08 26.8433 1043.89 26.6893 1043.67 26.568C1043.45 26.4373 1043.19 26.372 1042.87 26.372C1042.57 26.372 1042.31 26.4373 1042.08 26.568C1041.87 26.6893 1041.76 26.8713 1041.76 27.114C1041.76 27.31 1041.82 27.4687 1041.94 27.59C1042.07 27.7113 1042.22 27.8093 1042.39 27.884C1042.57 27.9587 1042.76 28.0147 1042.95 28.052C1043.15 28.0893 1043.32 28.122 1043.46 28.15C1043.73 28.2153 1043.98 28.2947 1044.21 28.388C1044.45 28.4813 1044.66 28.6027 1044.83 28.752C1045.01 28.9013 1045.14 29.0833 1045.23 29.298C1045.34 29.5127 1045.39 29.774 1045.39 30.082C1045.39 30.4553 1045.31 30.7773 1045.15 31.048C1044.99 31.3093 1044.79 31.524 1044.53 31.692C1044.28 31.86 1043.99 31.9813 1043.67 32.056C1043.35 32.1307 1043.03 32.168 1042.7 32.168C1042.15 32.168 1041.66 32.084 1041.24 31.916C1040.83 31.748 1040.46 31.44 1040.14 30.992L1041.09 30.208C1041.3 30.4133 1041.52 30.5953 1041.78 30.754C1042.03 30.9127 1042.34 30.992 1042.7 30.992C1042.86 30.992 1043.02 30.978 1043.18 30.95C1043.34 30.9127 1043.49 30.8613 1043.61 30.796C1043.74 30.7213 1043.84 30.6327 1043.92 30.53C1044 30.418 1044.04 30.292 1044.04 30.152C1044.04 29.9653 1043.98 29.8113 1043.86 29.69C1043.75 29.5687 1043.61 29.4753 1043.44 29.41C1043.28 29.3353 1043.11 29.2793 1042.92 29.242C1042.75 29.1953 1042.59 29.158 1042.45 29.13C1042.18 29.0647 1041.92 28.99 1041.68 28.906C1041.44 28.822 1041.22 28.71 1041.03 28.57C1040.85 28.43 1040.7 28.2527 1040.59 28.038C1040.47 27.8233 1040.42 27.5573 1040.42 27.24C1040.42 26.8947 1040.49 26.596 1040.63 26.344C1040.78 26.0827 1040.97 25.868 1041.2 25.7C1041.44 25.532 1041.72 25.406 1042.01 25.322C1042.32 25.238 1042.63 25.196 1042.94 25.196C1043.39 25.196 1043.82 25.28 1044.23 25.448C1044.64 25.616 1044.96 25.896 1045.21 26.288L1044.23 27.03ZM1051.66 27.128C1051.43 26.8853 1051.18 26.7033 1050.92 26.582C1050.67 26.4513 1050.37 26.386 1050.01 26.386C1049.67 26.386 1049.36 26.4513 1049.1 26.582C1048.85 26.7033 1048.64 26.876 1048.46 27.1C1048.29 27.3147 1048.16 27.5667 1048.07 27.856C1047.98 28.136 1047.94 28.43 1047.94 28.738C1047.94 29.046 1047.99 29.34 1048.09 29.62C1048.2 29.8907 1048.34 30.1287 1048.53 30.334C1048.72 30.5393 1048.94 30.7027 1049.2 30.824C1049.46 30.936 1049.76 30.992 1050.08 30.992C1050.44 30.992 1050.74 30.9313 1050.99 30.81C1051.24 30.6793 1051.48 30.4927 1051.69 30.25L1052.59 31.146C1052.26 31.51 1051.88 31.7713 1051.44 31.93C1051.01 32.0887 1050.55 32.168 1050.07 32.168C1049.56 32.168 1049.08 32.084 1048.65 31.916C1048.23 31.748 1047.87 31.5147 1047.56 31.216C1047.25 30.908 1047.02 30.544 1046.85 30.124C1046.68 29.6947 1046.6 29.2233 1046.6 28.71C1046.6 28.1967 1046.68 27.7253 1046.85 27.296C1047.02 26.8667 1047.25 26.498 1047.55 26.19C1047.86 25.882 1048.22 25.644 1048.64 25.476C1049.07 25.2987 1049.55 25.21 1050.07 25.21C1050.55 25.21 1051.02 25.2987 1051.45 25.476C1051.9 25.644 1052.29 25.9053 1052.62 26.26L1051.66 27.128ZM1054.69 28.682C1054.69 29.018 1054.75 29.3307 1054.85 29.62C1054.95 29.9 1055.1 30.1427 1055.28 30.348C1055.47 30.544 1055.7 30.7027 1055.97 30.824C1056.24 30.936 1056.54 30.992 1056.88 30.992C1057.21 30.992 1057.52 30.936 1057.79 30.824C1058.06 30.7027 1058.29 30.544 1058.47 30.348C1058.66 30.1427 1058.81 29.9 1058.91 29.62C1059.01 29.3307 1059.06 29.018 1059.06 28.682C1059.06 28.346 1059.01 28.038 1058.91 27.758C1058.81 27.4687 1058.66 27.226 1058.47 27.03C1058.29 26.8247 1058.06 26.666 1057.79 26.554C1057.52 26.4327 1057.21 26.372 1056.88 26.372C1056.54 26.372 1056.24 26.4327 1055.97 26.554C1055.7 26.666 1055.47 26.8247 1055.28 27.03C1055.1 27.226 1054.95 27.4687 1054.85 27.758C1054.75 28.038 1054.69 28.346 1054.69 28.682ZM1053.35 28.682C1053.35 28.1967 1053.44 27.744 1053.62 27.324C1053.8 26.904 1054.06 26.5353 1054.37 26.218C1054.69 25.9007 1055.06 25.6533 1055.49 25.476C1055.92 25.2893 1056.38 25.196 1056.88 25.196C1057.37 25.196 1057.84 25.2893 1058.26 25.476C1058.69 25.6533 1059.07 25.9007 1059.38 26.218C1059.7 26.5353 1059.95 26.904 1060.13 27.324C1060.31 27.744 1060.41 28.1967 1060.41 28.682C1060.41 29.1673 1060.31 29.6247 1060.13 30.054C1059.95 30.474 1059.7 30.8427 1059.38 31.16C1059.07 31.468 1058.69 31.7153 1058.26 31.902C1057.84 32.0793 1057.37 32.168 1056.88 32.168C1056.38 32.168 1055.92 32.0793 1055.49 31.902C1055.06 31.7153 1054.69 31.468 1054.37 31.16C1054.06 30.8427 1053.8 30.474 1053.62 30.054C1053.44 29.6247 1053.35 29.1673 1053.35 28.682ZM1061.19 25.364H1062.64L1064.63 30.446L1066.54 25.364H1067.88L1065.28 32H1063.89L1061.19 25.364ZM1069.94 29.144C1069.94 29.4333 1070 29.6993 1070.12 29.942C1070.25 30.1753 1070.42 30.376 1070.62 30.544C1070.83 30.712 1071.07 30.8427 1071.34 30.936C1071.61 31.0293 1071.89 31.076 1072.18 31.076C1072.57 31.076 1072.91 30.9873 1073.2 30.81C1073.49 30.6233 1073.75 30.3807 1074 30.082L1074.95 30.81C1074.25 31.7153 1073.27 32.168 1072.01 32.168C1071.49 32.168 1071.01 32.0793 1070.58 31.902C1070.16 31.7247 1069.8 31.482 1069.5 31.174C1069.21 30.8567 1068.99 30.488 1068.83 30.068C1068.67 29.6387 1068.59 29.1767 1068.59 28.682C1068.59 28.1873 1068.68 27.73 1068.85 27.31C1069.02 26.8807 1069.26 26.512 1069.56 26.204C1069.87 25.8867 1070.23 25.6393 1070.65 25.462C1071.07 25.2847 1071.53 25.196 1072.02 25.196C1072.61 25.196 1073.11 25.2987 1073.51 25.504C1073.92 25.7093 1074.25 25.98 1074.52 26.316C1074.78 26.6427 1074.96 27.016 1075.08 27.436C1075.2 27.8467 1075.26 28.2667 1075.26 28.696V29.144H1069.94ZM1073.91 28.136C1073.9 27.856 1073.86 27.5993 1073.77 27.366C1073.7 27.1327 1073.58 26.932 1073.42 26.764C1073.26 26.5867 1073.06 26.4513 1072.82 26.358C1072.59 26.2553 1072.31 26.204 1072 26.204C1071.69 26.204 1071.4 26.2647 1071.14 26.386C1070.89 26.498 1070.67 26.6473 1070.5 26.834C1070.32 27.0207 1070.18 27.2307 1070.08 27.464C1069.98 27.688 1069.94 27.912 1069.94 28.136H1073.91ZM1076.76 25.364H1078.02V26.386H1078.05C1078.14 26.2087 1078.25 26.05 1078.39 25.91C1078.53 25.7607 1078.68 25.6347 1078.85 25.532C1079.03 25.4293 1079.22 25.35 1079.42 25.294C1079.63 25.2287 1079.84 25.196 1080.04 25.196C1080.25 25.196 1080.43 25.224 1080.6 25.28L1080.54 26.638C1080.44 26.61 1080.34 26.5867 1080.24 26.568C1080.13 26.5493 1080.03 26.54 1079.93 26.54C1079.31 26.54 1078.84 26.7127 1078.51 27.058C1078.19 27.4033 1078.02 27.94 1078.02 28.668V32H1076.76V25.364Z" fill="white"/>
<path d="M1114.85 29.928C1115.1 30.292 1115.4 30.5627 1115.78 30.74C1116.16 30.908 1116.55 30.992 1116.95 30.992C1117.18 30.992 1117.41 30.9593 1117.64 30.894C1117.87 30.8193 1118.08 30.712 1118.27 30.572C1118.47 30.432 1118.62 30.2593 1118.75 30.054C1118.87 29.8487 1118.93 29.6107 1118.93 29.34C1118.93 28.9573 1118.81 28.668 1118.56 28.472C1118.32 28.2667 1118.02 28.0987 1117.65 27.968C1117.3 27.828 1116.91 27.6973 1116.48 27.576C1116.06 27.4453 1115.67 27.268 1115.3 27.044C1114.95 26.82 1114.65 26.5213 1114.41 26.148C1114.16 25.7653 1114.04 25.252 1114.04 24.608C1114.04 24.3187 1114.1 24.0107 1114.22 23.684C1114.35 23.3573 1114.55 23.0587 1114.83 22.788C1115.1 22.5173 1115.44 22.2933 1115.86 22.116C1116.29 21.9293 1116.8 21.836 1117.4 21.836C1117.94 21.836 1118.46 21.9107 1118.96 22.06C1119.45 22.2093 1119.88 22.5127 1120.26 22.97L1119.17 23.964C1119 23.7027 1118.76 23.4927 1118.45 23.334C1118.14 23.1753 1117.79 23.096 1117.4 23.096C1117.03 23.096 1116.72 23.1473 1116.46 23.25C1116.22 23.3433 1116.02 23.4693 1115.88 23.628C1115.73 23.7773 1115.62 23.9407 1115.55 24.118C1115.5 24.2953 1115.47 24.4587 1115.47 24.608C1115.47 25.028 1115.59 25.35 1115.83 25.574C1116.08 25.798 1116.37 25.98 1116.73 26.12C1117.09 26.26 1117.49 26.386 1117.91 26.498C1118.33 26.61 1118.73 26.7687 1119.08 26.974C1119.45 27.17 1119.75 27.4407 1119.99 27.786C1120.23 28.122 1120.36 28.5887 1120.36 29.186C1120.36 29.662 1120.26 30.0913 1120.08 30.474C1119.9 30.8567 1119.66 31.1787 1119.35 31.44C1119.04 31.7013 1118.68 31.902 1118.26 32.042C1117.84 32.182 1117.39 32.252 1116.91 32.252C1116.28 32.252 1115.67 32.14 1115.11 31.916C1114.54 31.692 1114.08 31.3467 1113.75 30.88L1114.85 29.928ZM1122.02 21.416H1123.28V26.386H1123.3C1123.46 26.0313 1123.74 25.7467 1124.13 25.532C1124.52 25.308 1124.98 25.196 1125.49 25.196C1125.81 25.196 1126.11 25.2473 1126.4 25.35C1126.7 25.4433 1126.95 25.5927 1127.17 25.798C1127.39 26.0033 1127.57 26.2693 1127.7 26.596C1127.83 26.9133 1127.9 27.2913 1127.9 27.73V32H1126.64V28.08C1126.64 27.772 1126.59 27.5107 1126.51 27.296C1126.43 27.072 1126.31 26.8947 1126.17 26.764C1126.03 26.624 1125.87 26.526 1125.68 26.47C1125.51 26.4047 1125.32 26.372 1125.12 26.372C1124.86 26.372 1124.62 26.414 1124.4 26.498C1124.17 26.582 1123.98 26.7173 1123.81 26.904C1123.64 27.0813 1123.51 27.31 1123.42 27.59C1123.32 27.87 1123.28 28.2013 1123.28 28.584V32H1122.02V21.416ZM1130.82 28.682C1130.82 29.018 1130.87 29.3307 1130.97 29.62C1131.07 29.9 1131.22 30.1427 1131.41 30.348C1131.59 30.544 1131.82 30.7027 1132.09 30.824C1132.36 30.936 1132.67 30.992 1133 30.992C1133.34 30.992 1133.64 30.936 1133.91 30.824C1134.18 30.7027 1134.41 30.544 1134.6 30.348C1134.78 30.1427 1134.93 29.9 1135.03 29.62C1135.13 29.3307 1135.19 29.018 1135.19 28.682C1135.19 28.346 1135.13 28.038 1135.03 27.758C1134.93 27.4687 1134.78 27.226 1134.6 27.03C1134.41 26.8247 1134.18 26.666 1133.91 26.554C1133.64 26.4327 1133.34 26.372 1133 26.372C1132.67 26.372 1132.36 26.4327 1132.09 26.554C1131.82 26.666 1131.59 26.8247 1131.41 27.03C1131.22 27.226 1131.07 27.4687 1130.97 27.758C1130.87 28.038 1130.82 28.346 1130.82 28.682ZM1129.47 28.682C1129.47 28.1967 1129.56 27.744 1129.74 27.324C1129.93 26.904 1130.18 26.5353 1130.5 26.218C1130.81 25.9007 1131.19 25.6533 1131.62 25.476C1132.05 25.2893 1132.51 25.196 1133 25.196C1133.5 25.196 1133.96 25.2893 1134.39 25.476C1134.82 25.6533 1135.19 25.9007 1135.51 26.218C1135.83 26.5353 1136.07 26.904 1136.25 27.324C1136.44 27.744 1136.53 28.1967 1136.53 28.682C1136.53 29.1673 1136.44 29.6247 1136.25 30.054C1136.07 30.474 1135.83 30.8427 1135.51 31.16C1135.19 31.468 1134.82 31.7153 1134.39 31.902C1133.96 32.0793 1133.5 32.168 1133 32.168C1132.51 32.168 1132.05 32.0793 1131.62 31.902C1131.19 31.7153 1130.81 31.468 1130.5 31.16C1130.18 30.8427 1129.93 30.474 1129.74 30.054C1129.56 29.6247 1129.47 29.1673 1129.47 28.682ZM1138.11 25.364H1139.37V26.316H1139.4C1139.64 25.9613 1139.97 25.686 1140.39 25.49C1140.82 25.294 1141.26 25.196 1141.71 25.196C1142.22 25.196 1142.68 25.2847 1143.09 25.462C1143.51 25.6393 1143.87 25.8867 1144.16 26.204C1144.45 26.5213 1144.68 26.8947 1144.84 27.324C1145 27.744 1145.08 28.1967 1145.08 28.682C1145.08 29.1767 1145 29.6387 1144.84 30.068C1144.68 30.488 1144.45 30.8567 1144.16 31.174C1143.87 31.482 1143.51 31.7247 1143.09 31.902C1142.68 32.0793 1142.22 32.168 1141.71 32.168C1141.23 32.168 1140.78 32.07 1140.36 31.874C1139.94 31.6687 1139.62 31.3933 1139.4 31.048H1139.37V35.948H1138.11V25.364ZM1141.55 26.372C1141.22 26.372 1140.91 26.4327 1140.64 26.554C1140.37 26.666 1140.14 26.8247 1139.96 27.03C1139.77 27.226 1139.62 27.4687 1139.52 27.758C1139.42 28.038 1139.37 28.346 1139.37 28.682C1139.37 29.018 1139.42 29.3307 1139.52 29.62C1139.62 29.9 1139.77 30.1427 1139.96 30.348C1140.14 30.544 1140.37 30.7027 1140.64 30.824C1140.91 30.936 1141.22 30.992 1141.55 30.992C1141.89 30.992 1142.19 30.936 1142.46 30.824C1142.73 30.7027 1142.96 30.544 1143.15 30.348C1143.33 30.1427 1143.48 29.9 1143.58 29.62C1143.68 29.3307 1143.74 29.018 1143.74 28.682C1143.74 28.346 1143.68 28.038 1143.58 27.758C1143.48 27.4687 1143.33 27.226 1143.15 27.03C1142.96 26.8247 1142.73 26.666 1142.46 26.554C1142.19 26.4327 1141.89 26.372 1141.55 26.372Z" fill="white"/>
</g>
<defs>
<filter id="filter0_b_8_314" x="-64" y="-64" width="2048" height="184" filterUnits="userSpaceOnUse" color-interpolation-filters="sRGB">
<feFlood flood-opacity="0" result="BackgroundImageFix"/>
<feGaussianBlur in="BackgroundImageFix" stdDeviation="32"/>
<feComposite in2="SourceAlpha" operator="in" result="effect1_backgroundBlur_8_314"/>
<feBlend mode="normal" in="SourceGraphic" in2="effect1_backgroundBlur_8_314" result="shape"/>
</filter>
<clipPath id="clip0_8_314">
<rect width="1920" height="56" fill="white"/>
</clipPath>
</defs>
</svg>
